<svg xmlns="http://www.w3.org/2000/svg" viewBox="0 0 32 32" width="32" height="32">
  <path d="M16 2C12 2 8 6 6 12c-2 6 0 10 2 13 1 2 3 3 5 3 1 0 2-1 3-2 1 1 2 2 3 2 2 0 4-1 5-3 2-3 4-7 2-13C24 6 20 2 16 2z" fill="#7BAE7F"/>
  <path d="M16 6c0 0-1 8-6 14" stroke="#FAFAF5" stroke-width="1.2" fill="none" stroke-linecap="round"/>
  <path d="M16 10c0 0-1 4-4 8" stroke="#FAFAF5" stroke-width="0.8" fill="none" stroke-linecap="round" opacity="0.7"/>
  <path d="M16 10c0 0 1 4 3 7" stroke="#FAFAF5" stroke-width="0.8" fill="none" stroke-linecap="round" opacity="0.7"/>
</svg>
